# xmcd
#
# Track frame offsets: 
#        150
#        12272
#        25241
#        36614
#        48291
#        57168
#        65436
#        78530
#        89700
#        104108
#        115657
#        125540
#        137905
#        148290
#
# Disc length: 2150 seconds
#
# Revision: 0
# Processed by: cddbd v1.5.2PL0 Copyright (c) Steve Scherf et al.
# Submitted via: ExactAudioCopy v1.0b1
#
DISCID=d308640e
DTITLE=Blank - Naked Sun
DYEAR=2016
DGENRE=
TTITLE0=Naked Sun
TTITLE1=Prom Day
TTITLE2=Lonely
TTITLE3=Country Heart
TTITLE4=Buonasera Señorita
TTITLE5=Arizona
TTITLE6=The Tree of Life
TTITLE7=Rock 'em Sally
TTITLE8=No Love
TTITLE9=Calling You
TTITLE10=Stick In The Middle
TTITLE11=Freedom
TTITLE12=Down
TTITLE13=Flame
EXTD=
EXTT0=
EXTT1=
EXTT2=
EXTT3=
EXTT4=
EXTT5=
EXTT6=
EXTT7=
EXTT8=
EXTT9=
EXTT10=
EXTT11=
EXTT12=
EXTT13=
PLAYORDER=
